<svg aria-hidden="true" version="1.1" xmlns="http://www.w3.org/2000/svg" xmlns:xlink="http://www.w3.org/1999/xlink">
<defs>
<symbol id="icon-calendar-check" viewBox="0 0 32 32">
    <path d="M28 13.333h-24M28 16.667v-4.933c0-2.24 0-3.36-0.436-4.216-0.383-0.753-0.995-1.365-1.748-1.748-0.856-0.436-1.976-0.436-4.216-0.436h-11.2c-2.24 0-3.36 0-4.216 0.436-0.753 0.383-1.365 0.995-1.748 1.748-0.436 0.856-0.436 1.976-0.436 4.216v11.2c0 2.24 0 3.36 0.436 4.216 0.383 0.753 0.995 1.365 1.748 1.748 0.856 0.436 1.976 0.436 4.216 0.436h5.6M21.333 2.667v5.333M10.667 2.667v5.333M19.333 25.333l2.667 2.667 6-6"></path>
</symbol>
<symbol id="icon-my-account" viewBox="0 0 29 32">
    <path stroke-linejoin="round" stroke-linecap="round" stroke-miterlimit="4" stroke-width="2.9091" d="M27.636 13.091h-26.182M27.636 16.727v-5.382c0-2.444 0-3.666-0.476-4.599-0.418-0.821-1.086-1.489-1.907-1.907-0.934-0.476-2.155-0.476-4.599-0.476h-12.218c-2.444 0-3.666 0-4.599 0.476-0.821 0.418-1.489 1.086-1.907 1.907-0.476 0.933-0.476 2.155-0.476 4.599v12.218c0 2.444 0 3.666 0.476 4.599 0.418 0.821 1.086 1.489 1.907 1.907 0.933 0.476 2.155 0.476 4.599 0.476h6.109M20.364 1.455v5.818M8.727 1.455v5.818M18.182 26.182l2.909 2.909 6.545-6.545"></path>
</symbol>
<symbol id="icon-user-check" viewBox="0 0 32 32">
    <path stroke-linejoin="round" stroke-linecap="round" stroke-miterlimit="4" stroke-width="2.6667" d="M21.333 24l2.667 2.667 5.333-5.333"></path>
    <path stroke-linejoin="round" stroke-linecap="round" stroke-miterlimit="4" stroke-width="2.6667" d="M16 20.667h-6c-1.861 0-2.791 0-3.548 0.23-1.705 0.517-3.038 1.851-3.555 3.556-0.23 0.757-0.23 1.687-0.23 3.548v0"></path>
    <path stroke-linejoin="round" stroke-linecap="round" stroke-miterlimit="4" stroke-width="2.6667" d="M13.333 16c3.314 0 6-2.686 6-6s-2.686-6-6-6c-3.314 0-6 2.686-6 6s2.686 6 6 6z"></path>
</symbol>
<symbol id="icon-logout-icon" viewBox="0 0 32 32">
    <path stroke-linejoin="round" stroke-linecap="round" stroke-miterlimit="4" stroke-width="3.2" d="M21.333 22.667l6.667-6.667M28 16l-6.667-6.667M28 16h-16M12 4h-1.6c-2.24 0-3.36 0-4.216 0.436-0.753 0.383-1.365 0.995-1.748 1.748-0.436 0.856-0.436 1.976-0.436 4.216v11.2c0 2.24 0 3.36 0.436 4.216 0.383 0.753 0.995 1.364 1.748 1.748 0.856 0.436 1.976 0.436 4.216 0.436h1.6"></path>
</symbol>
<symbol id="icon-arrow-exit" viewBox="0 0 32 32">
    <path stroke-linejoin="round" stroke-linecap="round" stroke-miterlimit="4" stroke-width="3" d="M20.5 2.5h1.8c2.52 0 3.78 0 4.743 0.49 0.847 0.431 1.535 1.12 1.967 1.967 0.49 0.963 0.49 2.223 0.49 4.743v12.6c0 2.52 0 3.78-0.49 4.743-0.432 0.847-1.12 1.535-1.967 1.967-0.963 0.49-2.223 0.49-4.743 0.49h-1.8M13 8.5l7.5 7.5M20.5 16l-7.5 7.5M20.5 16h-18"></path>
</symbol>
<symbol id="icon-moon" viewBox="0 0 32 32">
    <path d="M29.222 18.244c-1.071 0.284-2.174 0.428-3.282 0.428-3.374 0-6.542-1.312-8.922-3.691-1.563-1.572-2.686-3.526-3.259-5.667s-0.573-4.395-0.003-6.537c0.071-0.268 0.071-0.55-0.001-0.817s-0.213-0.511-0.409-0.707c-0.196-0.196-0.44-0.337-0.708-0.408s-0.55-0.072-0.817 0c-2.681 0.715-5.128 2.122-7.094 4.080-6.16 6.16-6.16 16.186 0 22.349 1.464 1.472 3.206 2.64 5.124 3.434s3.975 1.201 6.052 1.196c2.076 0.006 4.132-0.4 6.050-1.195s3.659-1.962 5.122-3.434c1.96-1.966 3.368-4.414 4.082-7.097 0.071-0.268 0.070-0.549-0.002-0.817s-0.213-0.511-0.409-0.707c-0.196-0.196-0.44-0.337-0.707-0.409s-0.549-0.073-0.817-0.002zM24.841 25.041c-1.171 1.177-2.564 2.111-4.098 2.746s-3.179 0.96-4.84 0.956c-1.661 0.004-3.307-0.321-4.841-0.957s-2.928-1.57-4.1-2.747c-4.927-4.929-4.927-12.95 0-17.879 0.952-0.951 2.051-1.742 3.255-2.344-0.176 2.274 0.141 4.559 0.929 6.7s2.029 4.085 3.638 5.702c1.613 1.614 3.558 2.858 5.699 3.647s4.428 1.103 6.703 0.921c-0.604 1.202-1.396 2.3-2.345 3.254z"></path>
</symbol>
<symbol id="icon-plus" viewBox="0 0 32 32">
    <path stroke-linejoin="round" stroke-linecap="round" stroke-miterlimit="4" stroke-width="3.5556" d="M16 6.667v18.667"></path>
    <path stroke-linejoin="round" stroke-linecap="round" stroke-miterlimit="4" stroke-width="3.5556" d="M6.667 16h18.667"></path>
</symbol>
<symbol id="icon-chevron-left" viewBox="0 0 32 32">
    <path stroke-linejoin="round" stroke-linecap="round" stroke-miterlimit="4" stroke-width="2.6667" d="M20 24l-8-8 8-8"></path>
</symbol>
<symbol id="icon-chevron-right" viewBox="0 0 32 32">
    <path stroke-linejoin="round" stroke-linecap="round" stroke-miterlimit="4" stroke-width="2.6667" d="M12 24l8-8-8-8"></path>
</symbol>
<symbol id="icon-trash" viewBox="0 0 32 32">
    <path stroke-linejoin="round" stroke-linecap="round" stroke-miterlimit="4" stroke-width="2.6" d="M12 4h8"></path>
    <path stroke-linejoin="round" stroke-linecap="round" stroke-miterlimit="4" stroke-width="2.6" d="M4 8h24"></path>
    <path stroke-linejoin="round" stroke-linecap="round" stroke-miterlimit="4" stroke-width="2.6" d="M6.667 8l0.801 12.018c0.149 2.231 0.223 3.347 0.588 4.243 0.662 1.627 2.004 2.883 3.672 3.435 0.919 0.304 2.037 0.304 4.273 0.304v0c2.236 0 3.354 0 4.273-0.304 1.668-0.552 3.009-1.808 3.671-3.435 0.365-0.896 0.439-2.012 0.588-4.243l0.801-12.018"></path>
</symbol>
<symbol id="icon-pencil" viewBox="0 0 32 32">
    <path stroke-linejoin="round" stroke-linecap="round" stroke-miterlimit="4" stroke-width="2.6" d="M3.333 28.667l7.399-2.846c0.473-0.182 0.71-0.273 0.931-0.392 0.197-0.106 0.384-0.227 0.56-0.364 0.198-0.154 0.378-0.333 0.736-0.692l15.040-15.040c1.473-1.473 1.473-3.861 0-5.333s-3.861-1.473-5.333 0l-15.040 15.040c-0.359 0.359-0.538 0.538-0.692 0.736-0.137 0.176-0.259 0.364-0.364 0.561-0.119 0.221-0.21 0.458-0.392 0.931l-2.846 7.399zM3.333 28.667l2.744-7.135c0.196-0.511 0.295-0.766 0.463-0.883 0.147-0.102 0.329-0.141 0.505-0.107 0.201 0.038 0.395 0.232 0.782 0.619l3.012 3.012c0.387 0.387 0.58 0.58 0.619 0.782 0.034 0.176-0.005 0.358-0.107 0.505-0.117 0.168-0.372 0.267-0.883 0.463l-7.135 2.744z"></path>
</symbol>
<symbol id="icon-arrow-circle" viewBox="0 0 32 32">
    <path stroke-linejoin="round" stroke-linecap="round" stroke-miterlimit="4" stroke-width="2.6" d="M4.451 9.333c2.305-3.985 6.614-6.667 11.55-6.667 7.364 0 13.333 5.97 13.333 13.333s-5.97 13.333-13.333 13.333c-4.935 0-9.244-2.681-11.55-6.667"></path>
    <path stroke-linejoin="round" stroke-linecap="round" stroke-miterlimit="4" stroke-width="2.6" d="M16 21.333l5.333-5.333-5.333-5.333"></path>
    <path stroke-linejoin="round" stroke-linecap="round" stroke-miterlimit="4" stroke-width="2.6" d="M2.667 16h18.667"></path>
</symbol>
</defs>
</svg>
