<svg aria-hidden="true" version="1.1" xmlns="http://www.w3.org/2000/svg" xmlns:xlink="http://www.w3.org/1999/xlink">
<defs>
<symbol id="icon-calendar-check" viewBox="0 0 32 32">
<path d="M28 13.333h-24M28 16.667v-4.933c0-2.24 0-3.36-0.436-4.216-0.383-0.753-0.995-1.365-1.748-1.748-0.856-0.436-1.976-0.436-4.216-0.436h-11.2c-2.24 0-3.36 0-4.216 0.436-0.753 0.383-1.365 0.995-1.748 1.748-0.436 0.856-0.436 1.976-0.436 4.216v11.2c0 2.24 0 3.36 0.436 4.216 0.383 0.753 0.995 1.365 1.748 1.748 0.856 0.436 1.976 0.436 4.216 0.436h5.6M21.333 2.667v5.333M10.667 2.667v5.333M19.333 25.333l2.667 2.667 6-6"></path>
</symbol>
<symbol id="icon-my-account" viewBox="0 0 29 32">
<path stroke-linejoin="round" stroke-linecap="round" stroke-miterlimit="4" stroke-width="2.9091" d="M27.636 13.091h-26.182M27.636 16.727v-5.382c0-2.444 0-3.666-0.476-4.599-0.418-0.821-1.086-1.489-1.907-1.907-0.934-0.476-2.155-0.476-4.599-0.476h-12.218c-2.444 0-3.666 0-4.599 0.476-0.821 0.418-1.489 1.086-1.907 1.907-0.476 0.933-0.476 2.155-0.476 4.599v12.218c0 2.444 0 3.666 0.476 4.599 0.418 0.821 1.086 1.489 1.907 1.907 0.933 0.476 2.155 0.476 4.599 0.476h6.109M20.364 1.455v5.818M8.727 1.455v5.818M18.182 26.182l2.909 2.909 6.545-6.545"></path>
</symbol>
<symbol id="icon-user-check" viewBox="0 0 32 32">
<path stroke-linejoin="round" stroke-linecap="round" stroke-miterlimit="4" stroke-width="2.6667" d="M21.333 24l2.667 2.667 5.333-5.333"></path>
<path stroke-linejoin="round" stroke-linecap="round" stroke-miterlimit="4" stroke-width="2.6667" d="M16 20.667h-6c-1.861 0-2.791 0-3.548 0.23-1.705 0.517-3.038 1.851-3.555 3.556-0.23 0.757-0.23 1.687-0.23 3.548v0"></path>
<path stroke-linejoin="round" stroke-linecap="round" stroke-miterlimit="4" stroke-width="2.6667" d="M13.333 16c3.314 0 6-2.686 6-6s-2.686-6-6-6c-3.314 0-6 2.686-6 6s2.686 6 6 6z"></path>
</symbol>
<symbol id="icon-logout-icon" viewBox="0 0 32 32">
<path stroke-linejoin="round" stroke-linecap="round" stroke-miterlimit="4" stroke-width="3.2" d="M21.333 22.667l6.667-6.667M28 16l-6.667-6.667M28 16h-16M12 4h-1.6c-2.24 0-3.36 0-4.216 0.436-0.753 0.383-1.365 0.995-1.748 1.748-0.436 0.856-0.436 1.976-0.436 4.216v11.2c0 2.24 0 3.36 0.436 4.216 0.383 0.753 0.995 1.364 1.748 1.748 0.856 0.436 1.976 0.436 4.216 0.436h1.6"></path>
</symbol>
<symbol id="icon-arrow-exit" viewBox="0 0 32 32">
<path stroke-linejoin="round" stroke-linecap="round" stroke-miterlimit="4" stroke-width="3" d="M20.5 2.5h1.8c2.52 0 3.78 0 4.743 0.49 0.847 0.431 1.535 1.12 1.967 1.967 0.49 0.963 0.49 2.223 0.49 4.743v12.6c0 2.52 0 3.78-0.49 4.743-0.432 0.847-1.12 1.535-1.967 1.967-0.963 0.49-2.223 0.49-4.743 0.49h-1.8M13 8.5l7.5 7.5M20.5 16l-7.5 7.5M20.5 16h-18"></path>
</symbol>
</defs>
</svg>
